HIERARCHY
ROOT Hips
{
	OFFSET 0.000000 8.830580 0.000000
	CHANNELS 6 Xposition Yposition Zposition Zrotation Yrotation Xrotation 
	JOINT Spine
	{
		OFFSET 0.000000 0.010000 0.000000
		CHANNELS 3 Zrotation Yrotation Xrotation
		JOINT Spine1
		{
			OFFSET 0.000000 2.459130 0.000000
			CHANNELS 3 Zrotation Yrotation Xrotation
			JOINT Neck
			{
				OFFSET 0.000000 2.484630 0.000000
				CHANNELS 3 Zrotation Yrotation Xrotation
				JOINT Head_virtual
				{
					OFFSET 0.000000 0.000000 0.000000
					CHANNELS 3 Zrotation Yrotation Xrotation
					JOINT Head
					{
						OFFSET 0.000000 0.927525 0.000000
						CHANNELS 3 Zrotation Yrotation Xrotation
						End Site
						{
							OFFSET 0.000000 0.000000 0.000000
						}
					}
				}
				JOINT LeftUpArm_virtual
				{
					OFFSET 0.000000 0.000000 0.000000
					CHANNELS 3 Zrotation Yrotation Xrotation
					JOINT LeftUpArm
					{
						OFFSET 1.248820 0.000000 0.000000
						CHANNELS 3 Zrotation Yrotation Xrotation
						JOINT LeftForeArm
						{
							OFFSET 2.597580 0.000000 0.000000
							CHANNELS 3 Zrotation Yrotation Xrotation
							JOINT LeftHand
							{
								OFFSET 2.455420 0.000000 0.000000
								CHANNELS 3 Zrotation Yrotation Xrotation
								End Site
								{
									OFFSET 0.000000 0.000000 0.000000
								}
							}
						}
					}
				}
				JOINT RightUpArm_virtual
				{
					OFFSET -0.000000 -0.000000 -0.000000
					CHANNELS 3 Zrotation Yrotation Xrotation
					JOINT RightUpArm
					{
						OFFSET -1.248820 -0.000000 -0.000000
						CHANNELS 3 Zrotation Yrotation Xrotation
						JOINT RightForeArm
						{
							OFFSET -2.597580 -0.000000 -0.000000
							CHANNELS 3 Zrotation Yrotation Xrotation
							JOINT RightHand
							{
								OFFSET -2.455420 -0.000000 -0.000000
								CHANNELS 3 Zrotation Yrotation Xrotation
								End Site
								{
									OFFSET 0.000000 0.000000 0.000000
								}
							}
						}
					}
				}
			}
		}
	}
	JOINT LeftUpLeg
	{
		OFFSET 1.271939 0.000000 0.000000
		CHANNELS 3 Zrotation Yrotation Xrotation
		JOINT LeftLowLeg
		{
			OFFSET 0.000000 -4.342910 0.000000
			CHANNELS 3 Zrotation Yrotation Xrotation
			JOINT LeftFoot
			{
				OFFSET 0.000000 -4.487670 0.000000
				CHANNELS 3 Zrotation Yrotation Xrotation
				JOINT LeftToeBase
				{
					OFFSET 0.000000 0.000000 1.515070
					CHANNELS 3 Zrotation Yrotation Xrotation
					End Site
					{
						OFFSET 0.000000 0.000000 0.000000
					}
				}
			}
		}
	}
	JOINT RightUpLeg
	{
		OFFSET -1.271939 0.000000 0.000000
		CHANNELS 3 Zrotation Yrotation Xrotation
		JOINT RightLowLeg
		{
			OFFSET 0.000000 -4.342910 0.000000
			CHANNELS 3 Zrotation Yrotation Xrotation
			JOINT RightFoot
			{
				OFFSET 0.000000 -4.487670 0.000000
				CHANNELS 3 Zrotation Yrotation Xrotation
				JOINT RightToeBase
				{
					OFFSET 0.000000 0.000000 1.515070
					CHANNELS 3 Zrotation Yrotation Xrotation
					End Site
					{
						OFFSET 0.000000 0.000000 0.000000
					}
				}
			}
		}
	}
}
MOTION
Frames: 9
Frame Time: 0.041667
-17.721883 1.080073 38.966806 -172.331681 13.175614 158.817140 6.109077 -1.476418 32.047907 -5.013057 5.438738 5.418155 0.000000 0.000000 0.000000 13.787852 3.059139 18.893237 -16.985532 -9.367189 -66.607813 -22.350300 2.596840 10.055300 -30.344801 -6.426530 -34.734009 180.000000 -79.577003 -180.000000 46.835999 -16.688700 36.348900 24.507500 -7.066890 4.526630 20.159401 0.284993 -18.898701 -180.000000 84.118401 -180.000000 -34.249901 10.239600 14.381100 -49.560336 17.478702 -101.962835 0.000000 0.000000 142.817001 -2.066034 -18.949699 -13.240777 0.000000 0.000000 -14.397561 56.788603 -19.980888 -96.949845 0.000000 0.000000 126.764999 62.673387 27.137438 54.028829 0.000000 0.000000 -20.542320 
-17.711132 1.079924 38.966180 -172.562157 13.066782 158.809421 6.272312 -1.709822 32.122915 -5.113105 5.496216 5.368232 0.000000 0.000000 0.000000 13.479002 3.328238 18.789150 -16.906508 -9.546774 -66.444087 -22.490900 2.667020 10.027900 -30.811300 -6.208170 -34.247986 180.000000 -79.056999 180.000000 47.791901 -16.754999 36.060398 24.549400 -7.047940 4.676000 20.340599 0.532882 -18.759100 180.000000 83.862701 180.000000 -34.385300 10.684400 14.965900 -49.851433 17.812153 -102.107578 0.000000 0.000000 142.848007 -2.426063 -19.382177 -13.083530 0.000000 0.000000 -14.328244 56.685409 -20.031968 -96.932950 0.000000 0.000000 126.779999 62.570020 27.107954 54.157870 0.000000 0.000000 -20.211920 
-17.703616 1.079811 38.964721 -172.828035 13.021088 158.772731 6.442054 -1.949646 32.174363 -5.254283 5.575154 5.419653 0.000000 0.000000 0.000000 13.158430 3.585441 18.626441 -16.946453 -9.695547 -66.236015 -22.637501 2.736120 9.981850 -31.275900 -6.031010 -33.721008 -180.000000 -78.607002 180.000000 48.757702 -17.111300 35.610298 24.620800 -6.945730 4.774030 20.560499 0.756859 -18.558500 -180.000000 83.598198 -180.000000 -34.802502 11.040300 15.736400 -50.275483 18.304049 -102.276928 0.000000 0.000000 142.891006 -2.465311 -19.626389 -12.964043 0.000000 0.000000 -14.470408 56.570729 -20.028018 -96.891552 0.000000 0.000000 126.808998 62.186702 27.282368 53.980872 0.000000 0.000000 -20.432820 
-17.696440 1.079123 38.962792 -173.063042 12.960189 158.741527 6.629453 -2.186359 32.235897 -5.384898 5.679608 5.443724 0.000000 0.000000 0.000000 12.900516 3.728654 18.464833 -17.080743 -9.820978 -66.009636 -22.738501 2.798680 9.955280 -31.817801 -5.865060 -33.101990 180.000000 -77.988998 -180.000000 49.112400 -16.714800 35.095100 24.647400 -6.899780 4.965430 20.940300 1.026340 -18.397301 -180.000000 83.326202 -180.000000 -34.862099 11.471300 15.660600 -50.564200 18.713030 -102.327211 0.000000 0.000000 142.919006 -2.727446 -20.081493 -12.994774 0.000000 0.000000 -14.574012 56.478642 -20.014479 -96.878333 0.000000 0.000000 126.846001 61.664807 27.506842 53.755061 0.000000 0.000000 -20.803810 
-17.688999 1.079212 38.963974 -173.209385 12.958288 158.777934 6.817775 -2.397448 32.327631 -5.437179 5.790664 5.368263 0.000000 0.000000 0.000000 12.630078 3.960548 18.424223 -17.159798 -9.974031 -65.868110 -22.903799 2.890600 9.978140 -32.265499 -5.781280 -32.479004 -180.000000 -77.545998 -180.000000 49.432701 -17.000200 35.095001 24.748501 -6.774850 5.014530 21.287001 1.214430 -18.086800 -180.000000 83.101097 -180.000000 -34.847401 12.011100 15.859500 -50.925728 19.212975 -102.594958 0.000000 0.000000 142.960007 -3.334063 -20.565977 -12.779087 0.000000 0.000000 -14.765284 56.635996 -19.953919 -96.914029 0.000000 0.000000 126.789001 62.705997 26.575344 53.997536 0.000000 0.000000 -19.857070 
-17.682243 1.078832 38.963697 -173.371687 12.903281 158.831398 6.963967 -2.618088 32.336654 -5.443434 5.858999 5.344248 0.000000 0.000000 0.000000 12.299391 4.243481 18.385431 -17.193369 -10.152882 -65.643579 -23.066099 2.936140 9.980800 -32.750198 -5.665380 -31.807007 -180.000000 -77.139000 180.000000 49.631100 -17.209499 35.049198 24.834900 -6.641200 5.165900 21.621099 1.488170 -17.678600 -180.000000 82.882500 -180.000000 -34.988300 12.307500 16.275101 -51.249331 19.669014 -102.777518 0.000000 0.000000 142.979004 -3.405481 -20.927014 -12.750100 0.000000 0.000000 -15.133978 56.648620 -19.881205 -96.956977 0.000000 0.000000 126.790001 62.647293 26.566797 53.848006 0.000000 0.000000 -19.861860 
-17.675651 1.078135 38.962728 -173.574637 12.909680 158.840267 7.077313 -2.712598 32.410849 -5.440549 5.938689 5.240845 0.000000 0.000000 0.000000 12.091917 4.390516 18.392839 -17.277719 -10.229507 -65.356638 -23.139500 2.975530 9.959690 -33.293900 -5.596030 -30.953003 -180.000000 -76.855003 180.000000 49.650398 -17.636000 35.641899 24.940300 -6.562920 5.296720 21.980801 1.698010 -17.220600 -180.000000 82.738297 -180.000000 -34.719501 12.788000 16.574301 -51.601696 20.180575 -102.977577 0.000000 0.000000 143.029999 -3.410153 -21.231656 -12.723202 0.000000 0.000000 -15.265736 56.528172 -19.756940 -96.903969 0.000000 0.000000 126.822998 62.390829 26.726780 53.733420 0.000000 0.000000 -19.823890 
-17.671001 1.077874 38.961396 -173.722010 12.921608 158.810429 7.237298 -2.853163 32.459167 -5.450650 6.090274 5.294336 0.000000 0.000000 0.000000 11.921242 4.472873 18.235987 -17.379934 -10.227572 -65.037363 -23.304501 2.891560 9.980580 -33.762100 -5.586680 -30.359985 -180.000000 -76.609001 180.000000 49.243198 -18.112101 36.222099 25.087400 -6.482560 5.433670 22.297100 1.934430 -16.825001 -180.000000 82.639198 -180.000000 -34.333801 13.314000 17.231300 -51.896915 20.658321 -103.137632 0.000000 0.000000 143.078995 -3.310296 -21.409976 -12.651521 0.000000 0.000000 -15.640013 56.473553 -19.709916 -96.851187 0.000000 0.000000 126.844002 62.140098 26.823724 53.577684 0.000000 0.000000 -19.880770 
-17.666261 1.077448 38.961373 -173.826961 12.848762 158.840417 7.385647 -3.013010 32.540422 -5.446223 6.179006 5.192538 0.000000 0.000000 0.000000 11.794937 4.555401 18.173898 -17.465656 -10.228501 -64.814589 -23.454000 2.877000 10.028000 -34.189899 -5.666760 -29.726990 -180.000000 -76.449997 180.000000 48.704498 -18.586500 36.875099 25.181200 -6.395930 5.548340 22.694000 2.115080 -16.275400 180.000000 82.627296 180.000000 -34.178902 13.927500 18.055799 -52.227278 20.994246 -103.299548 0.000000 0.000000 143.078003 -3.645749 -21.682627 -12.494305 0.000000 0.000000 -15.692104 56.478798 -19.667789 -96.887677 0.000000 0.000000 126.874001 61.778652 26.994076 53.282272 0.000000 0.000000 -19.903010 
